<?xml version="1.0" encoding="UTF-8" standalone="no"?><!DOCTYPE svg PUBLIC "-//W3C//DTD SVG 1.1//EN" "http://www.w3.org/Graphics/SVG/1.1/DTD/svg11.dtd"><svg width="100%" height="100%" viewBox="0 0 610 132" version="1.1" xmlns="http://www.w3.org/2000/svg" xmlns:xlink="http://www.w3.org/1999/xlink" xml:space="preserve" xmlns:serif="http://www.serif.com/" style="fill-rule:evenodd;clip-rule:evenodd;stroke-linejoin:round;stroke-miterlimit:2;"><path d="M46.315,32.12c3.704,1.341 6.61,3.528 8.717,6.562c2.107,3.033 3.161,6.338 3.161,9.914c0,6.258 -2.091,11.128 -6.274,14.608c-4.183,3.48 -10.33,5.221 -18.44,5.221l-33.335,0l0,-68.204l32.378,0c7.536,0 13.235,1.597 17.099,4.79c3.864,3.193 5.795,7.408 5.795,12.644c0,6.769 -3.033,11.591 -9.1,14.465Zm-29.983,23.373l16.189,0c2.874,0 5.093,-0.671 6.658,-2.012c1.565,-1.341 2.347,-3.257 2.347,-5.747c0,-5.173 -3.001,-7.759 -9.004,-7.759l-16.189,0l0,15.518Zm15.135,-42.34l-15.135,0l0,14.56l15.135,0c2.491,0 4.422,-0.671 5.795,-2.012c1.373,-1.341 2.06,-3.161 2.06,-5.46c0,-2.171 -0.687,-3.896 -2.06,-5.173c-1.373,-1.277 -3.305,-1.916 -5.795,-1.916Zm81.135,55.272l-15.039,0c-0.766,-1.469 -1.181,-3.321 -1.245,-5.556c-3.321,4.47 -8.589,6.705 -15.806,6.705c-5.428,0 -9.787,-1.341 -13.076,-4.023c-3.289,-2.682 -4.933,-6.386 -4.933,-11.112c0,-9.196 6.45,-14.337 19.35,-15.422l7.759,-0.671c4.279,-0.447 6.418,-2.075 6.418,-4.885c0,-3.321 -2.523,-4.981 -7.568,-4.981c-3.065,0 -5.221,0.463 -6.466,1.389c-1.245,0.926 -1.996,2.634 -2.251,5.125l-14.848,0c0.894,-11.431 8.781,-17.147 23.661,-17.147c14.688,0 22.032,5.077 22.032,15.231l0,26.247c0,4.151 0.671,7.184 2.012,9.1Zm-27.588,-8.909c3.385,0 6.067,-0.878 8.046,-2.634c1.98,-1.756 2.97,-4.39 2.97,-7.903l0,-3.64c-0.894,0.958 -2.554,1.597 -4.981,1.916l-6.131,0.671c-4.79,0.511 -7.184,2.491 -7.184,5.939c0,1.724 0.639,3.097 1.916,4.119c1.277,1.022 3.065,1.533 5.364,1.533Zm62.169,-41.286c0.255,0 1.341,0.064 3.257,0.192l0,13.602l-3.832,0c-8.749,0 -13.123,4.47 -13.123,13.411l0,22.99l-14.943,0l0,-49.428l14.56,0l0,9.196c2.299,-6.642 6.993,-9.962 14.081,-9.962Zm38.796,-0.383c6.642,0 11.91,2.331 15.806,6.993c3.832,4.662 5.747,10.952 5.747,18.871c0,7.919 -1.916,14.209 -5.747,18.871c-3.896,4.662 -9.164,6.993 -15.806,6.993c-6.578,0 -11.559,-2.586 -14.943,-7.759l0,6.61l-14.56,0l0,-68.204l14.943,0l0,24.81c3.385,-4.79 8.238,-7.184 14.56,-7.184Zm-4.119,39.753c3.321,0 5.907,-1.229 7.759,-3.688c1.852,-2.459 2.778,-5.987 2.778,-10.585c0,-9.004 -3.512,-13.507 -10.537,-13.507c-7.089,0 -10.633,4.63 -10.633,13.89c-0,9.26 3.544,13.89 10.633,13.89Zm81.231,-12.453l0,2.97l-36.592,0c0.511,3.385 1.756,5.971 3.736,7.759c1.98,1.788 4.502,2.682 7.568,2.682c4.853,0 8.174,-1.852 9.962,-5.556l14.177,0c-1.341,5.109 -4.183,9.148 -8.525,12.118c-4.343,2.97 -9.547,4.454 -15.614,4.454c-7.663,0 -13.858,-2.363 -18.584,-7.089c-4.726,-4.726 -7.089,-10.984 -7.089,-18.775c0,-7.855 2.331,-14.113 6.993,-18.775c4.598,-4.726 10.761,-7.089 18.488,-7.089c7.663,0 13.858,2.459 18.584,7.376c4.598,4.981 6.897,11.623 6.897,19.925Zm-25.672,-16.285c-6.131,0 -9.739,3.257 -10.824,9.771l21.84,0c-0.511,-3.065 -1.724,-5.46 -3.64,-7.184c-1.916,-1.724 -4.374,-2.586 -7.376,-2.586Zm67.054,-3.448l0,-6.418l14.56,0l0,68.204l-14.943,0l0,-24.714c-3.385,4.726 -8.206,7.089 -14.465,7.089c-6.642,0 -11.878,-2.331 -15.71,-6.993c-3.896,-4.662 -5.843,-10.952 -5.843,-18.871c0,-7.919 1.948,-14.209 5.843,-18.871c3.832,-4.662 9.068,-6.993 15.71,-6.993c6.578,0 11.527,2.523 14.848,7.568Zm-10.729,32.186c7.089,0 10.633,-4.63 10.633,-13.89c0,-9.26 -3.544,-13.89 -10.633,-13.89c-3.321,0 -5.907,1.229 -7.759,3.688c-1.852,2.459 -2.778,5.987 -2.778,10.585c0,9.004 3.512,13.507 10.537,13.507Zm66.192,-11.016l0,-27.588l14.943,0l0,49.428l-14.56,0l0,-6.993c-3.832,5.428 -9.004,8.142 -15.518,8.142c-5.237,0 -9.404,-1.581 -12.501,-4.742c-3.097,-3.161 -4.646,-7.647 -4.646,-13.459l0,-32.378l14.943,0l0,29.408c0,5.62 2.65,8.43 7.951,8.43c2.682,0 4.917,-0.894 6.705,-2.682c1.788,-1.788 2.682,-4.311 2.682,-7.568Zm72.514,-1.437l0,2.97l-36.592,0c0.511,3.385 1.756,5.971 3.736,7.759c1.98,1.788 4.502,2.682 7.568,2.682c4.853,0 8.174,-1.852 9.962,-5.556l14.177,0c-1.341,5.109 -4.183,9.148 -8.525,12.118c-4.343,2.97 -9.547,4.454 -15.614,4.454c-7.663,0 -13.858,-2.363 -18.584,-7.089c-4.726,-4.726 -7.089,-10.984 -7.089,-18.775c0,-7.855 2.331,-14.113 6.993,-18.775c4.598,-4.726 10.761,-7.089 18.488,-7.089c7.663,0 13.858,2.459 18.584,7.376c4.598,4.981 6.897,11.623 6.897,19.925Zm-25.672,-16.285c-6.131,0 -9.739,3.257 -10.824,9.771l21.84,0c-0.511,-3.065 -1.724,-5.46 -3.64,-7.184c-1.916,-1.724 -4.374,-2.586 -7.376,-2.586Zm63.893,17.721l0,-27.588l14.943,0l0,49.428l-14.56,0l0,-6.993c-3.832,5.428 -9.004,8.142 -15.518,8.142c-5.237,0 -9.404,-1.581 -12.501,-4.742c-3.097,-3.161 -4.646,-7.647 -4.646,-13.459l0,-32.378l14.943,0l0,29.408c0,5.62 2.65,8.43 7.951,8.43c2.682,0 4.917,-0.894 6.705,-2.682c1.788,-1.788 2.682,-4.311 2.682,-7.568Zm72.514,-1.437l0,2.97l-36.592,0c0.511,3.385 1.756,5.971 3.736,7.759c1.98,1.788 4.502,2.682 7.568,2.682c4.853,0 8.174,-1.852 9.962,-5.556l14.177,0c-1.341,5.109 -4.183,9.148 -8.525,12.118c-4.343,2.97 -9.547,4.454 -15.614,4.454c-7.663,0 -13.858,-2.363 -18.584,-7.089c-4.726,-4.726 -7.089,-10.984 -7.089,-18.775c0,-7.855 2.331,-14.113 6.993,-18.775c4.598,-4.726 10.761,-7.089 18.488,-7.089c7.663,0 13.858,2.459 18.584,7.376c4.598,4.981 6.897,11.623 6.897,19.925Zm-25.672,-16.285c-6.131,0 -9.739,3.257 -10.824,9.771l21.84,0c-0.511,-3.065 -1.724,-5.46 -3.64,-7.184c-1.916,-1.724 -4.374,-2.586 -7.376,-2.586Zm-159.204,59.815c11.694,0 21.187,9.494 21.187,21.187c0,11.694 -9.494,21.187 -21.187,21.187c-11.694,0 -21.187,-9.494 -21.187,-21.187c0,-11.694 9.494,-21.187 21.187,-21.187Zm54.148,0c11.694,0 21.187,9.494 21.187,21.187c0,11.694 -9.494,21.187 -21.187,21.187c-11.694,0 -21.187,-9.494 -21.187,-21.187c0,-11.694 9.494,-21.187 21.187,-21.187Zm54.148,0c11.694,0 21.187,9.494 21.187,21.187c0,11.694 -9.494,21.187 -21.187,21.187c-11.694,0 -21.187,-9.494 -21.187,-21.187c0,-11.694 9.494,-21.187 21.187,-21.187Zm73.958,1.625l0,39.124l-39.124,0l0,-39.124l39.124,0Zm68.371,16.401l0,6.321l-57.875,0l0,-6.321l57.875,0Zm-282.799,0l0,6.321l-21.496,0l0,-6.321l21.496,0Z"/></svg>